<svg xmlns="http://www.w3.org/2000/svg" viewBox="0 0 200 200"><defs><style>.cls-1{fill:#f9f206;}.cls-2{fill:#f4cc21;}.cls-3{fill:#64e2dc;}.cls-4{fill:#e56ec9;}.cls-5{opacity:0.36;}.cls-6{fill:#e8cc54;}.cls-7{fill:#1990a3;}.cls-8{opacity:0.21;}.cls-9{fill:#4d4d4d;}.cls-10{opacity:0.5;}</style></defs><title>bullseye2</title><g id="stroke"><g id="BIG"><path class="cls-1" d="M100,199.5A99.5,99.5,0,1,1,199.5,100,99.61,99.61,0,0,1,100,199.5Z"/><path class="cls-2" d="M100,1A99,99,0,1,1,1,100,99.11,99.11,0,0,1,100,1m0-1A100,100,0,1,0,200,100,100,100,0,0,0,100,0Z"/></g><g id="mell"><path class="cls-3" d="M100,36a64,64,0,1,1-64,64,64.07,64.07,0,0,1,64-64m0-1a65,65,0,1,0,65,65,65,65,0,0,0-65-65Z"/></g><g id="lille"><path class="cls-4" d="M100,71a29,29,0,1,1-29,29,29,29,0,0,1,29-29m0-1a30,30,0,1,0,30,30,30,30,0,0,0-30-30Z"/></g></g><g id="transperant2"><g id="BIG-2" data-name="BIG" class="cls-5"><path class="cls-1" d="M100,199.5A99.5,99.5,0,1,1,199.5,100,99.61,99.61,0,0,1,100,199.5Z"/><path class="cls-6" d="M100,1A99,99,0,1,1,1,100,99.11,99.11,0,0,1,100,1m0-1A100,100,0,1,0,200,100,100,100,0,0,0,100,0Z"/></g><g id="mell-2" data-name="mell"><path class="cls-3" d="M100,164.5A64.5,64.5,0,1,1,164.5,100,64.57,64.57,0,0,1,100,164.5Z"/><path class="cls-7" d="M100,36a64,64,0,1,1-64,64,64.07,64.07,0,0,1,64-64m0-1a65,65,0,1,0,65,65,65,65,0,0,0-65-65Z"/></g><g id="lille-2" data-name="lille" class="cls-8"><path class="cls-4" d="M100,129.85A29.85,29.85,0,1,1,129.85,100,29.88,29.88,0,0,1,100,129.85Z"/><path class="cls-9" d="M100,70.3A29.7,29.7,0,1,1,70.3,100,29.73,29.73,0,0,1,100,70.3m0-.3a30,30,0,1,0,30,30,30,30,0,0,0-30-30Z"/></g><g id="lille-3" data-name="lille" class="cls-10"><path class="cls-4" d="M100,71a29,29,0,1,1-29,29,29,29,0,0,1,29-29m0-1a30,30,0,1,0,30,30,30,30,0,0,0-30-30Z"/></g></g></svg>