<svg xmlns="http://www.w3.org/2000/svg" viewBox="0 0 200 200"><defs><style>.cls-1{opacity:0.18;}.cls-2{fill:#f9f206;}.cls-3{fill:#e8cc54;}.cls-4{opacity:0.46;}.cls-5{fill:#92f7ef;}.cls-6{fill:#4d4d4d;}.cls-7{opacity:0.52;}.cls-8{fill:#e56ec9;}</style></defs><title>bullseye0</title><g id="transperant1" class="cls-1"><g id="BIG"><path class="cls-2" d="M100,199a99,99,0,1,1,99-99A99.11,99.11,0,0,1,100,199Z"/><path class="cls-3" d="M100,2A98,98,0,1,1,2,100,98.11,98.11,0,0,1,100,2m0-2A100,100,0,1,0,200,100,100,100,0,0,0,100,0Z"/></g><g id="mell" class="cls-4"><path class="cls-5" d="M100,164.67A64.67,64.67,0,1,1,164.67,100,64.75,64.75,0,0,1,100,164.67Z"/><path class="cls-6" d="M100,35.65A64.35,64.35,0,1,1,35.65,100,64.42,64.42,0,0,1,100,35.65m0-.65a65,65,0,1,0,65,65,65,65,0,0,0-65-65Z"/></g><g id="lille" class="cls-7"><path class="cls-8" d="M100,129.5A29.5,29.5,0,1,1,129.5,100,29.53,29.53,0,0,1,100,129.5Z"/><path class="cls-6" d="M100,71a29,29,0,1,1-29,29,29,29,0,0,1,29-29m0-1a30,30,0,1,0,30,30,30,30,0,0,0-30-30Z"/></g></g></svg>