<svg id="stroke" xmlns="http://www.w3.org/2000/svg" viewBox="0 0 200 200"><defs><style>.cls-1{fill:#f9f206;}.cls-2{fill:#f4cc21;}.cls-3{fill:#64e2dc;}.cls-4{fill:#e56ec9;}</style></defs><title>bullseye1</title><g id="BIG"><path class="cls-1" d="M100,199.5A99.5,99.5,0,1,1,199.5,100,99.61,99.61,0,0,1,100,199.5Z"/><path class="cls-2" d="M100,1A99,99,0,1,1,1,100,99.11,99.11,0,0,1,100,1m0-1A100,100,0,1,0,200,100,100,100,0,0,0,100,0Z"/></g><g id="mell"><path class="cls-3" d="M100,36a64,64,0,1,1-64,64,64.07,64.07,0,0,1,64-64m0-1a65,65,0,1,0,65,65,65,65,0,0,0-65-65Z"/></g><g id="lille"><path class="cls-4" d="M100,71a29,29,0,1,1-29,29,29,29,0,0,1,29-29m0-1a30,30,0,1,0,30,30,30,30,0,0,0-30-30Z"/></g></svg>