<svg xmlns="http://www.w3.org/2000/svg" viewBox="0 0 200 200"><defs><style>.cls-1{fill:#f9f206;}.cls-2{fill:#f4de14;}.cls-3{fill:#64e2dc;}.cls-4{fill:#09a9ba;}.cls-5{fill:#e56ec9;}.cls-6{fill:#7e0a9b;}</style></defs><title>bullseye4</title><g id="Layer_3" data-name="Layer 3"><g id="BIG"><path class="cls-1" d="M100,199.5A99.5,99.5,0,1,1,199.5,100,99.61,99.61,0,0,1,100,199.5Z"/><path class="cls-2" d="M100,1A99,99,0,1,1,1,100,99.11,99.11,0,0,1,100,1m0-1A100,100,0,1,0,200,100,100,100,0,0,0,100,0Z"/></g><g id="mell"><path class="cls-3" d="M100,164.67A64.67,64.67,0,1,1,164.67,100,64.75,64.75,0,0,1,100,164.67Z"/><path class="cls-4" d="M100,35.65A64.35,64.35,0,1,1,35.65,100,64.42,64.42,0,0,1,100,35.65m0-.65a65,65,0,1,0,65,65,65,65,0,0,0-65-65Z"/></g><g id="lille"><path class="cls-5" d="M100,129.5A29.5,29.5,0,1,1,129.5,100,29.53,29.53,0,0,1,100,129.5Z"/><path class="cls-6" d="M100,71a29,29,0,1,1-29,29,29,29,0,0,1,29-29m0-1a30,30,0,1,0,30,30,30,30,0,0,0-30-30Z"/></g></g><g id="Layer_5" data-name="Layer 5"><g id="lille-2" data-name="lille"><path class="cls-6" d="M100,111.53a11.42,11.42,0,0,1-4.79-1,11.52,11.52,0,1,1,4.79,1Z"/><path class="cls-5" d="M100,88.82h0a11.18,11.18,0,0,1,10.16,15.83A11.21,11.21,0,0,1,100,111.18,11.18,11.18,0,0,1,89.84,95.35,11.21,11.21,0,0,1,100,88.82m0-.7a11.88,11.88,0,1,0,4.93,1.08A11.88,11.88,0,0,0,100,88.12Z"/></g></g></svg>